<?xml version="1.0" encoding="utf-8"?>
<!-- Generator: Adobe Illustrator 16.0.0, SVG Export Plug-In . SVG Version: 6.00 Build 0)  -->
<!DOCTYPE svg PUBLIC "-//W3C//DTD SVG 1.1//EN" "http://www.w3.org/Graphics/SVG/1.1/DTD/svg11.dtd">
<svg version="1.1" id="Layer_1" xmlns="http://www.w3.org/2000/svg" xmlns:xlink="http://www.w3.org/1999/xlink" x="0px" y="0px"
	 width="370px" height="84px" viewBox="0 0 370 84" enable-background="new 0 0 370 84" xml:space="preserve">
<g>
	<g transform="matrix(1,0,0,1,0,0)">
	</g>
	<g transform="matrix(1,0,0,1,0,0)">
	</g>
	<g transform="matrix(1,0,0,1,0,0)">
	</g>
	<g transform="matrix(1,0,0,1,0,0)">
	</g>
	<g transform="matrix(0.999853,0,0,0.999853,8.02144,11.9994)">
	</g>
	<g transform="matrix(25.4951,0,0,25.4951,-12.9847,-13.3999)">
	</g>
	<g transform="matrix(25.4951,0,0,25.4951,-12.9847,-13.3999)">
		<path vector-effect="none" fill="#DC2827" d="M3.539,1.9C3.462,1.949,3.372,1.995,3.273,2.034
			c-0.098,0.038-0.207,0.071-0.32,0.097S2.719,2.176,2.597,2.187c-0.061,0.006-0.123,0.01-0.185,0.012
			C2.38,2.199,2.35,2.199,2.319,2.2H2.223C2.101,2.195,1.975,2.186,1.855,2.168c-0.12-0.017-0.238-0.04-0.348-0.072
			C1.396,2.064,1.292,2.027,1.198,1.985c-0.094-0.042-0.179-0.09-0.249-0.14c-0.07-0.051-0.126-0.103-0.167-0.154
			c-0.04-0.05-0.064-0.097-0.078-0.136c-0.003-0.01-0.006-0.02-0.009-0.028C0.693,1.52,0.692,1.512,0.69,1.506
			c0.057-0.129,0.132-0.252,0.224-0.365c0.014,0.058,0.047,0.14,0.113,0.214c0.064,0.074,0.155,0.141,0.264,0.195
			c0.108,0.055,0.235,0.096,0.375,0.123c0.07,0.015,0.143,0.025,0.218,0.032C1.96,1.71,2.038,1.713,2.117,1.712
			c0.04,0,0.08-0.002,0.122-0.004c0.02-0.001,0.039-0.002,0.06-0.004C2.32,1.702,2.341,1.7,2.362,1.698
			c0.083-0.01,0.167-0.025,0.252-0.042c0.084-0.018,0.169-0.04,0.253-0.07C2.908,1.571,2.95,1.554,2.991,1.537
			c0.041-0.019,0.082-0.038,0.122-0.061c0.079-0.044,0.156-0.097,0.219-0.167c0.031-0.035,0.059-0.074,0.08-0.118
			c0.021-0.044,0.032-0.093,0.032-0.142c0-0.005,0-0.01,0-0.014c0.168,0.177,0.29,0.381,0.366,0.598
			C3.79,1.668,3.764,1.706,3.729,1.743C3.681,1.797,3.617,1.851,3.539,1.9"/>
	</g>
	<g transform="matrix(25.4951,0,0,25.4951,-12.9847,-13.3999)">
	</g>
	<g transform="matrix(25.4951,0,0,25.4951,-12.9847,-13.3999)">
		<path vector-effect="none" fill="#DC2827" d="M3.662,2.649c-0.087,0.048-0.187,0.093-0.296,0.13
			c-0.11,0.037-0.228,0.068-0.352,0.093C2.89,2.896,2.76,2.914,2.628,2.925C2.561,2.93,2.495,2.934,2.427,2.936
			c-0.034,0.001-0.066,0.001-0.1,0.001L2.224,2.936c-0.133-0.003-0.269-0.013-0.4-0.03c-0.131-0.017-0.259-0.04-0.38-0.07
			C1.322,2.807,1.208,2.771,1.103,2.729C0.999,2.688,0.904,2.64,0.824,2.591C0.783,2.567,0.747,2.54,0.714,2.514
			C0.682,2.488,0.653,2.462,0.629,2.436c-0.03-0.031-0.053-0.062-0.07-0.091C0.54,2.179,0.548,2.008,0.582,1.842
			C0.584,1.845,0.587,1.848,0.59,1.851c0.06,0.068,0.135,0.131,0.223,0.188c0.088,0.057,0.188,0.106,0.296,0.15
			c0.108,0.042,0.224,0.078,0.346,0.105c0.122,0.028,0.249,0.047,0.378,0.059c0.129,0.012,0.26,0.017,0.393,0.014l0.096-0.003
			C2.355,2.361,2.389,2.36,2.421,2.357c0.065-0.006,0.13-0.012,0.194-0.022c0.128-0.019,0.252-0.043,0.37-0.076
			C3.104,2.226,3.216,2.187,3.319,2.14c0.103-0.047,0.197-0.099,0.278-0.157c0.081-0.058,0.148-0.121,0.2-0.184
			c0.017-0.021,0.032-0.041,0.045-0.061C3.911,1.99,3.919,2.253,3.865,2.507C3.841,2.529,3.812,2.552,3.782,2.574
			C3.745,2.599,3.705,2.626,3.662,2.649"/>
	</g>
	<g transform="matrix(25.4951,0,0,25.4951,-12.9847,-13.3999)">
	</g>
	<g transform="matrix(25.4951,0,0,25.4951,-12.9847,-13.3999)">
		<path vector-effect="none" fill="#DC2827" d="M3.377,1.049c0,0.079-0.04,0.155-0.098,0.214c-0.028,0.03-0.061,0.056-0.095,0.081
			C3.149,1.366,3.112,1.387,3.075,1.407c-0.153,0.074-0.32,0.11-0.481,0.128c-0.081,0.01-0.161,0.013-0.24,0.012
			c-0.019,0-0.038,0-0.057-0.001c-0.019,0-0.04-0.001-0.059-0.002C2.201,1.542,2.162,1.539,2.125,1.535
			C2.052,1.528,1.981,1.516,1.913,1.503c-0.067-0.014-0.132-0.03-0.192-0.047C1.6,1.42,1.495,1.375,1.412,1.328
			c-0.083-0.047-0.145-0.098-0.18-0.143C1.196,1.141,1.183,1.106,1.179,1.084c-0.001-0.005,0-0.007-0.001-0.01L1.176,1.073
			c0,0,0-0.003,0-0.005c0-0.003,0-0.006,0-0.009c0-0.004,0-0.008,0-0.011c0-0.001,0-0.003,0-0.008c0-0.006,0.001-0.014,0.003-0.025
			c0.005-0.023,0.017-0.057,0.053-0.101c0.036-0.044,0.097-0.096,0.18-0.143c0.044-0.026,0.096-0.05,0.152-0.073
			C1.56,0.711,1.558,0.722,1.556,0.732C1.552,0.766,1.552,0.784,1.552,0.784v0.011c0,0,0.001,0.011,0.002,0.031
			c0.002,0.015,0.008,0.043,0.017,0.068C1.58,0.914,1.591,0.94,1.607,0.963C1.638,1.01,1.685,1.055,1.741,1.091
			c0.056,0.035,0.124,0.062,0.197,0.078C2.011,1.184,2.089,1.19,2.171,1.186c0.01,0,0.021-0.001,0.03-0.002l0.015-0.002h0.008
			c-0.002,0,0.004,0,0.003,0h0.001L2.23,1.181h0.003c0.02-0.003,0.037-0.005,0.058-0.009c0.044-0.008,0.085-0.019,0.126-0.032
			C2.5,1.115,2.583,1.079,2.656,1.023c0.01-0.006,0.018-0.015,0.026-0.022l0.013-0.012l0.012-0.013
			c0.017-0.016,0.032-0.035,0.045-0.055c0.026-0.04,0.044-0.089,0.044-0.139L2.795,0.75C2.793,0.737,2.789,0.724,2.786,0.711
			C2.782,0.699,2.777,0.688,2.772,0.676C2.767,0.666,2.76,0.655,2.754,0.646C2.74,0.626,2.726,0.606,2.709,0.59L2.707,0.588
			c0.235,0.07,0.458,0.191,0.65,0.364C3.37,0.984,3.377,1.017,3.377,1.049"/>
	</g>
	<g transform="matrix(25.4951,0,0,25.4951,-12.9847,-13.3999)">
	</g>
	<g transform="matrix(25.4951,0,0,25.4951,-12.9847,-13.3999)">
		<path vector-effect="none" fill="#DC2827" d="M1.866,3.64c0.119,0.008,0.238,0.011,0.36,0.008l0.088-0.004
			c0.03-0.002,0.061-0.003,0.09-0.006c0.06-0.004,0.119-0.01,0.177-0.018c0.117-0.015,0.232-0.034,0.341-0.06
			c0.11-0.023,0.215-0.054,0.312-0.09C3.249,3.465,3.265,3.459,3.28,3.453c-0.568,0.454-1.367,0.487-1.969,0.1
			c0.067,0.018,0.137,0.033,0.208,0.045C1.632,3.618,1.748,3.632,1.866,3.64"/>
	</g>
	<g transform="matrix(25.4951,0,0,25.4951,-12.9847,-13.3999)">
	</g>
	<g transform="matrix(25.4951,0,0,25.4951,-12.9847,-13.3999)">
		<path vector-effect="none" fill="#DC2827" d="M1.825,0.804C1.825,0.804,1.825,0.805,1.825,0.804L1.825,0.804
			c0-0.01-0.001-0.017-0.001-0.022c0-0.001,0-0.003,0-0.008c0-0.003,0.001-0.006,0.002-0.011c0.003-0.005,0.003-0.011,0.008-0.02
			c0.009-0.015,0.026-0.036,0.055-0.06c0.028-0.023,0.069-0.048,0.118-0.07c0.013-0.005,0.026-0.01,0.039-0.016
			c0.013-0.005,0.027-0.01,0.042-0.015c0.014-0.004,0.03-0.009,0.045-0.013C2.148,0.568,2.161,0.564,2.178,0.56
			c0.004,0,0.009-0.001,0.013-0.002C2.266,0.553,2.343,0.55,2.422,0.552c0.027,0.004,0.053,0.01,0.08,0.017
			c0.01,0.003,0.018,0.006,0.027,0.009c0.009,0.003,0.018,0.006,0.027,0.01l0.026,0.012l0.025,0.014
			c0.065,0.037,0.12,0.099,0.119,0.169c0,0.034-0.013,0.068-0.035,0.096c-0.022,0.03-0.052,0.053-0.084,0.073L2.583,0.968
			L2.557,0.978C2.548,0.982,2.539,0.985,2.53,0.988C2.521,0.991,2.513,0.996,2.503,0.997c-0.037,0.01-0.074,0.018-0.111,0.02
			C2.355,1.022,2.318,1.021,2.285,1.019C2.268,1.018,2.247,1.016,2.229,1.015C2.213,1.012,2.197,1.009,2.181,1.007
			C2.115,0.995,2.056,0.975,2.007,0.954c-0.049-0.022-0.09-0.046-0.118-0.07C1.86,0.86,1.843,0.839,1.834,0.823
			C1.829,0.816,1.829,0.81,1.825,0.804C1.827,0.804,1.826,0.803,1.825,0.804"/>
	</g>
	<g transform="matrix(25.4951,0,0,25.4951,-12.9847,-13.3999)">
	</g>
	<g transform="matrix(25.4951,0,0,25.4951,-12.9847,-13.3999)">
		<path vector-effect="none" fill="#DC2827" d="M3.198,3.366C3.104,3.395,3.003,3.418,2.897,3.437
			C2.791,3.456,2.68,3.469,2.567,3.476C2.511,3.48,2.454,3.482,2.397,3.483c-0.029,0.001-0.057,0-0.085,0.001L2.224,3.482
			c-0.113-0.003-0.229-0.012-0.34-0.026C1.773,3.443,1.664,3.423,1.56,3.4C1.457,3.376,1.359,3.346,1.27,3.314
			c-0.09-0.033-0.171-0.07-0.24-0.11C0.961,3.165,0.903,3.123,0.861,3.083c-0.042-0.041-0.069-0.08-0.083-0.11
			c-0.015-0.03-0.019-0.057-0.02-0.063c0,0,0-0.01-0.001-0.014c0-0.005,0-0.009,0-0.013c0-0.007-0.001-0.01-0.001-0.01
			c0-0.021-0.006-0.04-0.015-0.058c0.087,0.045,0.182,0.087,0.283,0.12c0.117,0.04,0.243,0.074,0.374,0.1
			C1.529,3.062,1.665,3.08,1.805,3.09c0.138,0.012,0.278,0.016,0.421,0.013L2.33,3.099c0.035-0.002,0.071-0.004,0.105-0.007
			c0.07-0.004,0.14-0.011,0.208-0.021c0.137-0.018,0.271-0.041,0.4-0.073c0.128-0.032,0.25-0.07,0.363-0.114
			c0.113-0.043,0.216-0.095,0.307-0.152c0.041-0.025,0.079-0.051,0.114-0.078c-0.066,0.211-0.176,0.411-0.33,0.587
			C3.484,3.251,3.469,3.259,3.454,3.267C3.378,3.304,3.291,3.338,3.198,3.366"/>
	</g>
	<g transform="matrix(25.4951,0,0,25.4951,-12.9847,-13.3999)">
	</g>
	<g transform="matrix(25.4951,0,0,25.4951,-12.9847,-13.3999)">
	</g>
	<g transform="matrix(0.999853,0,0,0.999853,8.02144,11.9994)">
	</g>
	<g transform="matrix(1.44006,0,0,1.44006,112.748,7.7613)">
	</g>
	<g transform="matrix(1.44006,0,0,1.44006,112.748,7.7613)">
		<path vector-effect="none" fill="#DC2827" d="M13.293,7.665C13.173,7.981,0.412,34.96-1.628,41.418
			c-0.119,0.355,0.52,0.591,0.24,1.025c0,0-0.359,0.236-0.92,0.157c-0.52-0.118-0.44-0.788-0.44-0.788
			c0.4-2.047,3.72-9.806,7.16-17.487c-0.88,1.536-1.68,2.875-2.28,3.82c0.08,0.119,0.12,0.315,0.04,0.513
			c-0.16,0.354-0.36,0.315-0.52,0.236c-0.08,0.079-0.16,0.197-0.24,0.275l-0.28,0.394c-1.4,1.772-2.64,3.309-3.96,3.427
			c-0.04,0.039-0.12,0.039-0.2,0.039c-0.4,0-0.801-0.157-1.161-0.433c-0.439-0.394-0.599-1.024-0.439-1.851
			c0.319-1.497,1.72-3.427,3.44-3.9c0.64-0.157,1.56-0.196,2.48,0.473c2.56-4.017,8.801-15.557,9.161-16.226
			c1-2.167,1.68-3.624,1.8-3.899c0,0,0.36-0.355,0.76-0.158C13.453,7.232,13.293,7.665,13.293,7.665L13.293,7.665 M0.532,28.46
			c0.04-0.039,0.2-0.315,0.24-0.354c-0.32-0.275-1.2-0.512-1.72-0.394c-1.2,0.237-2.28,2.127-2.56,3.269
			c-0.08,0.394-0.04,0.669,0.04,0.709c0.24,0.196,0.4,0.196,0.52,0.196c0.84-0.117,2.08-1.654,3.16-3.033L0.532,28.46
			 M16.865,28.579c0.36,0.275-0.16,0.591-0.16,0.591c-0.32,0.355-4.8,5.397-8.16,5.081c-0.12,0-0.24-0.04-0.36-0.04
			c-0.399-0.079-0.92-0.354-1.24-1.103c-0.88-2.205,0.56-4.529,2.28-5.79c1.08-0.787,2.04-0.984,2.6-0.511
			c0.28,0.197,0.44,0.511,0.4,0.866c-0.04,1.181-2.24,2.757-2.92,3.191c0,0-0.28,0.078-0.6-0.237c-0.32-0.354-0.04-0.709-0.04-0.709
			c1.2-0.787,2.28-1.812,2.4-2.245c-0.24,0-0.96,0.276-1.8,1.103c-0.96,0.985-1.8,2.521-1.24,3.899
			c0.559,1.063,2.04,0.512,3.239,0.039c1.28-0.473,4.041-2.875,4.681-3.623C15.945,29.091,16.345,28.106,16.865,28.579
			L16.865,28.579 M27.117,30.391c0,0,0.32-0.158,0.48,0c0.16,0.197,0,0.433,0,0.433c-1.04,1.221-4,3.544-5.6,3.544
			c-0.52,0-0.84-0.196-0.96-0.394c-0.36-0.394-0.559-1.141,0.44-3.623c-3,3.427-3.96,3.111-4.32,3.033
			c-0.24-0.079-0.68-0.355-0.76-1.143v-0.039c-0.08-1.654,4.32-6.223,5.16-6.145c0,0,0.6,0.158,0.56,0.435
			c0,0.511-0.52,0.708-0.72,0.669c-0.76-0.354-3.92,3.703-3.84,5.002v0.118c0.479-0.118,1.88-1.181,4.08-3.899
			c0.64-0.827,1.16-1.417,1.44-1.772c0.359-0.394,0.68-0.788,1.12-0.433c0.16,0.117,0.36,0.394,0.12,0.787
			c-1.52,2.835-2.6,5.671-2.4,6.263c0.16,0.59,1.2,0.275,2.56-0.631C25.477,31.927,26.557,31.02,27.117,30.391L27.117,30.391
			 M39.289,11.132c-4.48,8.074-10.64,19.299-10.36,25.718c0.04,0.277,0.12,0.552,0.28,0.631c1.52,0.748,4.36-4.963,5.4-6.539
			c0,0,0.36-0.945,0.88-0.511c0.359,0.315-0.12,0.59-0.12,0.59c-0.52,0.592-4.201,7.405-5.921,7.287
			c-1.6-0.119-1.64-1.458-1.64-1.458C27.649,29.012,35.29,15.739,40.25,7.114c0,0,0.52-0.63,1.2-0.355
			c0.52,0.236,0.32,0.906,0.32,0.906C41.77,7.705,41.049,8.375,39.289,11.132L39.289,11.132 M58.994,30.391c0,0,0.32-0.158,0.48,0
			c0.16,0.197,0,0.433,0,0.433c-1.04,1.221-4,3.544-5.6,3.544c-0.52,0-0.84-0.196-0.96-0.394c-0.36-0.394-0.559-1.141,0.44-3.623
			c-3,3.427-3.96,3.111-4.32,3.033c-0.24-0.079-0.68-0.355-0.76-1.143v-0.039c-0.08-1.654,4.32-6.223,5.16-6.145
			c0,0,0.6,0.158,0.56,0.435c0,0.511-0.52,0.708-0.72,0.669c-0.76-0.354-3.92,3.703-3.84,5.002v0.118
			c0.48-0.118,1.88-1.181,4.08-3.899c0.64-0.827,1.16-1.417,1.44-1.772c0.359-0.394,0.68-0.788,1.12-0.433
			c0.16,0.117,0.36,0.394,0.12,0.787c-1.52,2.835-2.6,5.671-2.4,6.263c0.16,0.59,1.2,0.275,2.56-0.631
			C57.354,31.927,58.434,31.02,58.994,30.391L58.994,30.391 M72.167,28.539c0.36,0.315-0.12,0.592-0.12,0.592
			c-0.52,0.59-5.12,5.159-7.8,5.159c-0.32,0-0.6,0.119-0.88,0c-0.921-0.354-0.521-1.457-0.121-1.536
			c0.361-0.079,0.801-0.275,1.241-0.551c1.36-0.905,3.8-3.781,3.72-4.608c0-0.079,0-0.355-0.84-0.433
			c-0.52-0.039-3.2,1.851-6.881,8.862c-2.24,4.253-4.24,8.98-5.08,10.988l-0.12,0.315c0,0-0.44,0.67-0.88,0.551
			c-0.479-0.197-0.239-0.905-0.239-0.905c0.519-2.049,10.601-24.773,11.04-25.719c0,0,0.4-0.748,0.92-0.511
			c0.48,0.275,0.12,0.945,0.12,0.945c-1.08,2.482-2.48,5.632-3.921,8.901c2.041-2.915,4.281-4.609,5.161-4.569
			c1.6,0.158,1.84,1.103,1.88,1.497c0.12,1.537-2.88,4.805-4.96,5.987c1.64-0.118,5.6-2.954,6.88-4.45
			C71.287,29.052,71.647,28.067,72.167,28.539L72.167,28.539 M82.46,30.391c0,0,0.319-0.158,0.479,0c0.16,0.197,0,0.433,0,0.433
			c-1.04,1.221-4,3.544-5.6,3.544c-0.52,0-0.84-0.196-0.96-0.394c-0.36-0.394-0.56-1.141,0.44-3.623c-3,3.427-3.96,3.111-4.32,3.033
			c-0.24-0.079-0.68-0.355-0.76-1.143v-0.039c-0.08-1.654,4.32-6.223,5.16-6.145c0,0,0.599,0.158,0.559,0.435
			c0,0.511-0.519,0.708-0.72,0.669c-0.76-0.354-3.92,3.703-3.84,5.002v0.118c0.48-0.118,1.88-1.181,4.08-3.899
			c0.639-0.827,1.16-1.417,1.44-1.772c0.36-0.394,0.68-0.788,1.12-0.433c0.16,0.117,0.36,0.394,0.12,0.787
			c-1.52,2.835-2.6,5.671-2.4,6.263c0.159,0.59,1.2,0.275,2.56-0.631C80.819,31.927,81.9,31.02,82.46,30.391L82.46,30.391
			 M93.792,28.737c0.32,0.315-0.16,0.59-0.16,0.59c-0.36,0.473-2.92,2.993-5.32,4.373c-1.24,0.63-1.88,0.315-1.96,0.117
			c-0.32-0.551,0.04-1.497,0.84-3.544c0.2-0.513,0.48-1.182,0.6-1.615c-0.32-0.079-0.88-0.277-1.16-0.433
			c-1.72,3.309-4.48,8.152-4.641,8.429c0,0,0.08,0.866-0.479,0.551c-0.561-0.277,0-0.945,0-0.945c1.04-1.813,3.039-5.869,4.4-8.547
			c-0.8-0.591-1.16-1.299-1.08-2.166c0.08-0.788,0.6-1.497,1.32-1.772c0.6-0.236,1.24-0.158,1.64,0.196
			c0.24,0.236,0.6,0.709,0.36,1.615c-0.08,0.355-0.36,0.945-0.72,1.693c0.28,0.158,1.44,0.631,1.52,0.788
			c0.2,0.433-0.04,1.024-0.68,2.639c-0.24,0.591-0.68,1.969-0.84,2.56c1.24-0.119,4.96-3.427,5.44-4.018
			C92.871,29.248,93.231,28.304,93.792,28.737L93.792,28.737 M87.032,25.271c0.079-0.237,0.04-0.394,0-0.433
			c-0.04-0.04-0.12-0.04-0.2-0.04c-0.08,0-0.16,0-0.24,0.04c-0.12,0.039-0.56,0.236-0.64,0.827c0,0.275,0.08,0.629,0.48,1.023
			C86.752,26.058,86.952,25.547,87.032,25.271L87.032,25.271 M131.605,12.077c0.68,0.276-0.16,0.945-0.44,0.827h-0.04
			c-4.28-1.811-16.521-2.127-26.201-1.772c-4.48,8.074-10.641,19.299-10.361,25.718c0.04,0.277,0.12,0.552,0.28,0.631
			c1.52,0.748,4.361-4.963,5.401-6.539c0,0,0.36-0.945,0.88-0.511c0.36,0.315-0.12,0.59-0.12,0.59
			c-0.52,0.592-4.2,7.405-5.921,7.287c-1.6-0.119-1.64-1.458-1.64-1.458c-0.24-6.656,5.561-17.29,10.001-25.6
			c-6.64,0.276-11.92,0.906-12.04,0.946c0,0-0.64-0.276-0.64-0.709c0-0.591,0.76-0.788,0.76-0.788c0.559,0,5.959-0.355,12.641-0.512
			c1.04-1.969,1.6-2.835,1.72-3.072c0,0,0.52-0.63,1.2-0.355c0.519,0.236,0.32,0.906,0.32,0.906c0,0.04-0.72,0.709-1.72,2.481
			C115.245,9.95,127.165,10.186,131.605,12.077L131.605,12.077 M117.457,30.824c0.24,0.275-0.16,0.63-0.16,0.63
			c-2.161,2.048-7.401,7.955-8.64,7.247c-0.56-0.315-0.12-1.143,0.12-1.615c0.24-0.511,0.599-1.142,1-1.851
			c0.72-1.221,1.44-2.402,2.001-3.663c1.32-2.599,1.32-3.112,1.16-3.151c-1.24-0.079-3.92,2.166-5.68,5.041
			c0,0-0.44,0.275-0.8,0.039c-0.32-0.197-0.16-0.788-0.16-0.788c0-0.039,0.08-0.118,0.2-0.236c0.439-0.866,2.6-4.805,2.56-4.923
			c-1.12-0.315-3.6,2.757-4.52,4.253c-0.92,1.497-1.32,2.127-1.96,2.049c-0.12-0.04-0.48-0.157-0.6-0.67
			c-0.4-1.811,1.56-5.395,1.8-5.829c0,0,0.359-0.787,0.96-0.394c0.44,0.275,0.04,0.945,0.04,0.945c-0.6,1.023-1.36,2.757-1.64,3.977
			c0.16-0.196,0.28-0.433,0.44-0.63c1.36-2.245,4-5.592,6.04-4.647h0.08l0.04,0.04c0.64,0.551-0.2,1.851-0.639,3.071
			c0.639-0.59,3.92-3.229,4.88-1.733c0.88,1.497-1.12,4.451-3.12,7.838c-0.16,0.315-0.36,0.669-0.56,0.985
			c2.2-1.063,5.8-5.16,6.561-6.065C116.857,30.746,117.217,30.548,117.457,30.824 M128.949,28.579c0.36,0.275-0.16,0.591-0.16,0.591
			c-0.32,0.355-4.8,5.397-8.16,5.081c-0.12,0-0.24-0.04-0.36-0.04c-0.4-0.079-0.92-0.354-1.24-1.103
			c-0.88-2.205,0.559-4.529,2.28-5.79c1.08-0.787,2.04-0.984,2.6-0.511c0.28,0.197,0.44,0.511,0.4,0.866
			c-0.04,1.181-2.241,2.757-2.92,3.191c0,0-0.28,0.078-0.6-0.237c-0.32-0.354-0.04-0.709-0.04-0.709c1.2-0.787,2.28-1.812,2.4-2.245
			c-0.24,0-0.96,0.276-1.8,1.103c-0.96,0.985-1.8,2.521-1.24,3.899c0.56,1.063,2.04,0.512,3.24,0.039
			c1.28-0.473,4.04-2.875,4.68-3.623C128.029,29.091,128.429,28.106,128.949,28.579L128.949,28.579 M139.962,29.879
			c0.239-0.512,0.8-0.355,0.72-0.158c-1.88,4.411-6.16,8.074-7.361,8.074c-0.12,0-0.2-0.039-0.24-0.039
			c-0.2-0.039-0.64-0.236-0.64-0.945c-0.04-1.024,0.76-2.521,1.64-4.215c0.52-1.063,1.04-2.166,1.32-3.033
			c0.32-0.867,0.24-1.339,0.2-1.457c-1.12-0.315-2.881,2.481-3.8,4.017c-0.96,1.536-1.36,2.166-2.001,2.049
			c-0.16,0-0.48-0.119-0.6-0.67c-0.399-1.851,1.8-5.475,2.001-5.869c0,0,0.28-0.945,1.2-0.315c0.44,0.276-0.359,0.827-0.359,0.827
			c-0.6,1.024-1.4,2.796-1.64,4.057c0.12-0.236,0.28-0.473,0.4-0.669c1.4-2.285,3.32-5.357,5.361-4.412l0.08,0.039l0.08,0.039
			c1.12,0.945,0.04,3.151-1.2,5.711c-0.639,1.261-1.32,2.678-1.48,3.544C134.841,36.614,138.122,33.621,139.962,29.879
			L139.962,29.879 M178.735,12.077c0.68,0.276-0.16,0.945-0.44,0.827h-0.04c-4.28-1.811-16.521-2.127-26.201-1.772
			c-4.48,8.074-10.64,19.299-10.36,25.718c0.04,0.277,0.12,0.552,0.279,0.631c1.52,0.748,4.36-4.963,5.4-6.539
			c0,0,0.36-0.945,0.88-0.511c0.36,0.315-0.12,0.59-0.12,0.59c-0.52,0.592-4.2,7.405-5.92,7.287c-1.6-0.119-1.64-1.458-1.64-1.458
			c-0.24-6.656,5.56-17.29,10-25.6c-6.64,0.276-11.92,0.906-12.04,0.946c0,0-0.64-0.276-0.64-0.709c0-0.591,0.76-0.788,0.76-0.788
			c0.56,0,5.96-0.355,12.64-0.512c1.041-1.969,1.6-2.835,1.72-3.072c0,0,0.52-0.63,1.2-0.355c0.52,0.236,0.32,0.906,0.32,0.906
			c0,0.04-0.72,0.709-1.72,2.481C162.375,9.95,174.295,10.186,178.735,12.077L178.735,12.077"/>
	</g>
	<g transform="matrix(1.44006,0,0,1.44006,112.748,7.7613)">
	</g>
	<g transform="matrix(0.999853,0,0,0.999853,8.02144,11.9994)">
	</g>
	<g transform="matrix(0.999853,0,0,0.999853,8.02144,11.9994)">
	</g>
	<g transform="matrix(1,0,0,1,0,0)">
	</g>
	<g transform="matrix(1,0,0,1,0,0)">
	</g>
	<g transform="matrix(1,0,0,1,0,0)">
	</g>
	<g transform="matrix(1,0,0,1,0,0)">
	</g>
	<g transform="matrix(0.999853,0,0,0.999853,8.02144,11.9994)">
	</g>
	<g transform="matrix(25.4951,0,0,25.4951,-12.9847,-13.3999)">
	</g>
	<g transform="matrix(25.4951,0,0,25.4951,-12.9847,-13.3999)">
	</g>
	<g transform="matrix(0.999853,0,0,0.999853,8.02144,11.9994)">
	</g>
	<g transform="matrix(0.999853,0,0,0.999853,8.02144,11.9994)">
	</g>
	<g transform="matrix(0.999853,0,0,0.999853,8.02144,11.9994)">
	</g>
	<g transform="matrix(1,0,0,1,0,0)">
	</g>
	<g transform="matrix(1,0,0,1,0,0)">
	</g>
	<g transform="matrix(1,0,0,1,0,0)">
	</g>
	<g transform="matrix(1,0,0,1,0,0)">
	</g>
	<g transform="matrix(1,0,0,1,0,0)">
	</g>
	<g transform="matrix(1,0,0,1,0,0)">
	</g>
</g>
</svg>
