<?xml version="1.0" encoding="UTF-8" standalone="no"?>
<svg width="100.012mm" height="26.4583mm"
 xmlns="http://www.w3.org/2000/svg" xmlns:xlink="http://www.w3.org/1999/xlink"  version="1.2" baseProfile="tiny">
<desc>Created by EvoPdf</desc>
<defs>
</defs>
<g fill="none" stroke="black" stroke-width="1" fill-rule="evenodd" stroke-linecap="square" stroke-linejoin="bevel" >

<g fill="#000000" fill-opacity="1" stroke="#000000" stroke-opacity="1" stroke-width="1" stroke-linecap="square" stroke-linejoin="miter" stroke-miterlimit="2" transform="matrix(1,0,0,1,0,0)"
>
</g>

<g fill="#000000" fill-opacity="1" stroke="#000000" stroke-opacity="1" stroke-width="1" stroke-linecap="square" stroke-linejoin="miter" stroke-miterlimit="2" transform="matrix(1,0,0,1,0,0)"
>
</g>

<g fill="#000000" fill-opacity="1" stroke="#000000" stroke-opacity="1" stroke-width="1" stroke-linecap="square" stroke-linejoin="miter" stroke-miterlimit="2" transform="matrix(1,0,0,1,0,0)"
>
</g>

<g fill="#000000" fill-opacity="1" stroke="#000000" stroke-opacity="1" stroke-width="1" stroke-linecap="square" stroke-linejoin="miter" stroke-miterlimit="2" transform="matrix(1,0,0,1,0,0)"
>
</g>

<g fill="#000000" fill-opacity="1" stroke="#000000" stroke-opacity="1" stroke-width="1" stroke-linecap="square" stroke-linejoin="miter" stroke-miterlimit="2" transform="matrix(0.999853,0,0,0.999853,8.02144,11.9994)"
>
</g>

<g fill="#000000" fill-opacity="1" stroke="#000000" stroke-opacity="1" stroke-width="1" stroke-linecap="square" stroke-linejoin="miter" stroke-miterlimit="2" transform="matrix(25.4951,0,0,25.4951,-12.9847,-13.3999)"
>
</g>

<g fill="#ffffff" fill-opacity="1" stroke="none" transform="matrix(25.4951,0,0,25.4951,-12.9847,-13.3999)"
>
<path vector-effect="none" fill-rule="nonzero" d="M3.814,2.209 C3.737,2.259 3.647,2.305 3.548,2.345 C3.45,2.384 3.341,2.417 3.228,2.444 C3.115,2.471 2.994,2.489 2.872,2.5 C2.811,2.506 2.749,2.51 2.687,2.512 C2.655,2.513 2.625,2.513 2.594,2.514 L2.498,2.514 C2.376,2.509 2.25,2.499 2.13,2.481 C2.01,2.464 1.892,2.44 1.782,2.408 C1.671,2.376 1.567,2.338 1.473,2.295 C1.379,2.252 1.294,2.204 1.224,2.153 C1.154,2.101 1.098,2.048 1.057,1.997 C1.017,1.946 0.993,1.898 0.979,1.859 C0.976,1.849 0.973,1.839 0.97,1.831 C0.968,1.823 0.967,1.815 0.965,1.809 C1.022,1.678 1.097,1.553 1.189,1.438 C1.203,1.497 1.236,1.58 1.302,1.655 C1.366,1.73 1.457,1.798 1.566,1.853 C1.674,1.909 1.801,1.951 1.941,1.978 C2.011,1.993 2.084,2.003 2.159,2.01 C2.235,2.016 2.313,2.019 2.392,2.018 C2.432,2.018 2.472,2.016 2.514,2.014 C2.534,2.013 2.553,2.012 2.574,2.01 C2.595,2.008 2.616,2.006 2.637,2.004 C2.72,1.994 2.804,1.979 2.889,1.961 C2.973,1.943 3.058,1.92 3.142,1.89 C3.183,1.875 3.225,1.858 3.266,1.84 C3.307,1.821 3.348,1.801 3.388,1.778 C3.467,1.733 3.544,1.679 3.607,1.608 C3.638,1.572 3.666,1.533 3.687,1.488 C3.708,1.443 3.719,1.394 3.719,1.344 C3.719,1.339 3.719,1.334 3.719,1.33 C3.887,1.51 4.009,1.717 4.085,1.937 C4.065,1.973 4.039,2.012 4.004,2.05 C3.956,2.104 3.892,2.159 3.814,2.209 "/>
</g>

<g fill="#000000" fill-opacity="1" stroke="#000000" stroke-opacity="1" stroke-width="1" stroke-linecap="square" stroke-linejoin="miter" stroke-miterlimit="2" transform="matrix(25.4951,0,0,25.4951,-12.9847,-13.3999)"
>
</g>

<g fill="#ffffff" fill-opacity="1" stroke="none" transform="matrix(25.4951,0,0,25.4951,-12.9847,-13.3999)"
>
<path vector-effect="none" fill-rule="nonzero" d="M3.937,2.97 C3.85,3.019 3.75,3.064 3.641,3.102 C3.531,3.14 3.413,3.171 3.289,3.196 C3.165,3.221 3.035,3.239 2.903,3.25 C2.836,3.255 2.77,3.259 2.702,3.261 C2.668,3.262 2.636,3.262 2.602,3.262 L2.499,3.261 C2.366,3.258 2.23,3.248 2.099,3.231 C1.968,3.214 1.84,3.19 1.719,3.16 C1.597,3.13 1.483,3.094 1.378,3.051 C1.274,3.009 1.179,2.961 1.099,2.911 C1.058,2.886 1.022,2.859 0.989,2.833 C0.957,2.806 0.928,2.78 0.904,2.753 C0.874,2.721 0.851,2.69 0.834,2.661 C0.815,2.492 0.823,2.319 0.857,2.15 C0.859,2.153 0.862,2.156 0.865,2.159 C0.925,2.228 1,2.292 1.088,2.35 C1.176,2.408 1.276,2.458 1.384,2.502 C1.492,2.545 1.608,2.581 1.73,2.609 C1.852,2.637 1.979,2.657 2.108,2.669 C2.237,2.681 2.368,2.686 2.501,2.683 L2.597,2.68 C2.63,2.677 2.664,2.676 2.696,2.673 C2.761,2.667 2.826,2.661 2.89,2.651 C3.018,2.632 3.142,2.607 3.26,2.574 C3.379,2.54 3.491,2.5 3.594,2.453 C3.697,2.405 3.791,2.352 3.872,2.294 C3.953,2.235 4.02,2.171 4.072,2.107 C4.089,2.086 4.104,2.065 4.117,2.045 C4.186,2.3 4.194,2.567 4.14,2.825 C4.116,2.848 4.087,2.871 4.057,2.894 C4.02,2.919 3.98,2.946 3.937,2.97 "/>
</g>

<g fill="#000000" fill-opacity="1" stroke="#000000" stroke-opacity="1" stroke-width="1" stroke-linecap="square" stroke-linejoin="miter" stroke-miterlimit="2" transform="matrix(25.4951,0,0,25.4951,-12.9847,-13.3999)"
>
</g>

<g fill="#ffffff" fill-opacity="1" stroke="none" transform="matrix(25.4951,0,0,25.4951,-12.9847,-13.3999)"
>
<path vector-effect="none" fill-rule="nonzero" d="M3.652,1.345 C3.652,1.425 3.612,1.502 3.554,1.562 C3.526,1.592 3.493,1.619 3.459,1.644 C3.424,1.667 3.387,1.688 3.35,1.708 C3.197,1.783 3.03,1.82 2.869,1.838 C2.788,1.848 2.708,1.851 2.629,1.85 C2.61,1.85 2.591,1.85 2.572,1.849 C2.553,1.849 2.532,1.848 2.513,1.847 C2.476,1.845 2.437,1.842 2.4,1.838 C2.327,1.831 2.256,1.819 2.188,1.806 C2.121,1.792 2.056,1.776 1.996,1.758 C1.875,1.721 1.77,1.676 1.687,1.628 C1.604,1.58 1.542,1.528 1.507,1.483 C1.471,1.438 1.458,1.403 1.454,1.38 C1.453,1.375 1.454,1.373 1.453,1.37 L1.451,1.369 C1.451,1.369 1.451,1.366 1.451,1.364 C1.451,1.361 1.451,1.358 1.451,1.355 C1.451,1.351 1.451,1.347 1.451,1.344 C1.451,1.343 1.451,1.341 1.451,1.336 C1.451,1.33 1.452,1.322 1.454,1.311 C1.459,1.288 1.471,1.253 1.507,1.208 C1.543,1.163 1.604,1.111 1.687,1.063 C1.731,1.037 1.783,1.012 1.839,0.989 C1.835,1.001 1.833,1.013 1.831,1.023 C1.827,1.057 1.827,1.076 1.827,1.076 L1.827,1.087 C1.827,1.087 1.828,1.098 1.829,1.118 C1.831,1.133 1.837,1.162 1.846,1.187 C1.855,1.208 1.866,1.234 1.882,1.257 C1.913,1.305 1.96,1.351 2.016,1.387 C2.072,1.423 2.14,1.45 2.213,1.466 C2.286,1.482 2.364,1.488 2.446,1.484 C2.456,1.484 2.467,1.483 2.476,1.482 L2.491,1.48 L2.499,1.48 C2.497,1.48 2.503,1.48 2.502,1.48 L2.503,1.48 L2.505,1.479 L2.508,1.479 C2.528,1.476 2.545,1.474 2.566,1.47 C2.61,1.462 2.651,1.451 2.692,1.438 C2.775,1.412 2.858,1.375 2.931,1.318 C2.941,1.312 2.949,1.303 2.957,1.296 L2.97,1.284 L2.982,1.271 C2.999,1.255 3.014,1.235 3.027,1.215 C3.053,1.174 3.071,1.125 3.071,1.074 L3.07,1.041 C3.068,1.028 3.064,1.015 3.061,1.001 C3.057,0.989 3.052,0.978 3.047,0.966 C3.042,0.956 3.035,0.945 3.029,0.935 C3.015,0.915 3.001,0.895 2.984,0.879 L2.982,0.877 C3.217,0.948 3.44,1.071 3.632,1.247 C3.645,1.279 3.652,1.312 3.652,1.345 "/>
</g>

<g fill="#000000" fill-opacity="1" stroke="#000000" stroke-opacity="1" stroke-width="1" stroke-linecap="square" stroke-linejoin="miter" stroke-miterlimit="2" transform="matrix(25.4951,0,0,25.4951,-12.9847,-13.3999)"
>
</g>

<g fill="#ffffff" fill-opacity="1" stroke="none" transform="matrix(25.4951,0,0,25.4951,-12.9847,-13.3999)"
>
<path vector-effect="none" fill-rule="nonzero" d="M2.141,3.976 C2.26,3.984 2.379,3.987 2.501,3.984 L2.589,3.98 C2.619,3.978 2.65,3.977 2.679,3.974 C2.739,3.97 2.798,3.964 2.856,3.956 C2.973,3.941 3.088,3.921 3.197,3.895 C3.307,3.872 3.412,3.84 3.509,3.804 C3.524,3.798 3.54,3.792 3.555,3.786 C2.987,4.247 2.188,4.281 1.586,3.888 C1.653,3.906 1.723,3.921 1.794,3.934 C1.907,3.954 2.023,3.968 2.141,3.976 "/>
</g>

<g fill="#000000" fill-opacity="1" stroke="#000000" stroke-opacity="1" stroke-width="1" stroke-linecap="square" stroke-linejoin="miter" stroke-miterlimit="2" transform="matrix(25.4951,0,0,25.4951,-12.9847,-13.3999)"
>
</g>

<g fill="#ffffff" fill-opacity="1" stroke="none" transform="matrix(25.4951,0,0,25.4951,-12.9847,-13.3999)"
>
<path vector-effect="none" fill-rule="nonzero" d="M2.1,1.096 C2.1,1.096 2.1,1.097 2.1,1.096 L2.1,1.095 C2.1,1.086 2.099,1.079 2.099,1.074 C2.099,1.073 2.099,1.071 2.099,1.066 C2.099,1.063 2.1,1.06 2.101,1.055 C2.104,1.05 2.104,1.044 2.109,1.035 C2.118,1.02 2.135,0.998 2.164,0.974 C2.192,0.951 2.233,0.925 2.282,0.903 C2.295,0.898 2.308,0.893 2.321,0.887 C2.334,0.882 2.348,0.877 2.363,0.872 C2.377,0.868 2.393,0.863 2.408,0.859 C2.423,0.856 2.436,0.852 2.453,0.848 C2.457,0.848 2.462,0.847 2.466,0.846 C2.541,0.841 2.618,0.838 2.697,0.84 C2.724,0.844 2.75,0.85 2.777,0.857 C2.787,0.86 2.795,0.863 2.804,0.866 C2.813,0.869 2.822,0.872 2.831,0.876 L2.857,0.888 L2.882,0.902 C2.947,0.94 3.002,1.003 3.001,1.074 C3.001,1.109 2.988,1.143 2.966,1.172 C2.944,1.202 2.914,1.226 2.882,1.246 L2.858,1.262 L2.832,1.273 C2.823,1.277 2.814,1.28 2.805,1.283 C2.796,1.286 2.788,1.291 2.778,1.292 C2.741,1.302 2.704,1.31 2.667,1.312 C2.63,1.317 2.593,1.316 2.56,1.314 C2.543,1.313 2.522,1.311 2.504,1.31 C2.488,1.307 2.472,1.304 2.456,1.302 C2.39,1.29 2.331,1.27 2.282,1.248 C2.233,1.226 2.192,1.201 2.164,1.177 C2.135,1.153 2.118,1.131 2.109,1.115 C2.104,1.108 2.104,1.102 2.1,1.096 C2.102,1.096 2.101,1.095 2.1,1.096 "/>
</g>

<g fill="#000000" fill-opacity="1" stroke="#000000" stroke-opacity="1" stroke-width="1" stroke-linecap="square" stroke-linejoin="miter" stroke-miterlimit="2" transform="matrix(25.4951,0,0,25.4951,-12.9847,-13.3999)"
>
</g>

<g fill="#ffffff" fill-opacity="1" stroke="none" transform="matrix(25.4951,0,0,25.4951,-12.9847,-13.3999)"
>
<path vector-effect="none" fill-rule="nonzero" d="M3.473,3.698 C3.379,3.727 3.278,3.751 3.172,3.77 C3.066,3.789 2.955,3.802 2.842,3.81 C2.786,3.814 2.729,3.816 2.672,3.817 C2.643,3.818 2.615,3.817 2.587,3.818 L2.499,3.816 C2.386,3.813 2.27,3.804 2.159,3.79 C2.048,3.776 1.939,3.756 1.835,3.732 C1.732,3.708 1.634,3.678 1.545,3.645 C1.455,3.611 1.374,3.574 1.305,3.533 C1.236,3.494 1.178,3.451 1.136,3.41 C1.094,3.368 1.067,3.329 1.053,3.298 C1.038,3.268 1.034,3.24 1.033,3.234 C1.033,3.234 1.033,3.224 1.032,3.22 C1.032,3.215 1.032,3.211 1.032,3.207 C1.032,3.2 1.031,3.197 1.031,3.197 C1.031,3.176 1.025,3.156 1.016,3.138 C1.103,3.184 1.198,3.226 1.299,3.26 C1.416,3.301 1.542,3.335 1.673,3.362 C1.804,3.389 1.94,3.407 2.08,3.418 C2.218,3.43 2.358,3.434 2.501,3.431 L2.605,3.427 C2.64,3.425 2.676,3.423 2.71,3.42 C2.78,3.416 2.85,3.409 2.918,3.399 C3.055,3.381 3.189,3.357 3.318,3.325 C3.446,3.293 3.568,3.254 3.681,3.209 C3.794,3.165 3.897,3.112 3.988,3.055 C4.029,3.03 4.067,3.003 4.102,2.976 C4.036,3.19 3.926,3.393 3.772,3.572 C3.759,3.581 3.744,3.589 3.729,3.597 C3.653,3.635 3.566,3.669 3.473,3.698 "/>
</g>

<g fill="#000000" fill-opacity="1" stroke="#000000" stroke-opacity="1" stroke-width="1" stroke-linecap="square" stroke-linejoin="miter" stroke-miterlimit="2" transform="matrix(25.4951,0,0,25.4951,-12.9847,-13.3999)"
>
</g>

<g fill="#000000" fill-opacity="1" stroke="#000000" stroke-opacity="1" stroke-width="1" stroke-linecap="square" stroke-linejoin="miter" stroke-miterlimit="2" transform="matrix(25.4951,0,0,25.4951,-12.9847,-13.3999)"
>
</g>

<g fill="#000000" fill-opacity="1" stroke="#000000" stroke-opacity="1" stroke-width="1" stroke-linecap="square" stroke-linejoin="miter" stroke-miterlimit="2" transform="matrix(0.999853,0,0,0.999853,8.02144,11.9994)"
>
</g>

<g fill="#000000" fill-opacity="1" stroke="#000000" stroke-opacity="1" stroke-width="1" stroke-linecap="square" stroke-linejoin="miter" stroke-miterlimit="2" transform="matrix(1.44006,0,0,1.44006,112.748,7.7613)"
>
</g>

<g fill="#ffffff" fill-opacity="1" stroke="none" transform="matrix(1.44006,0,0,1.44006,112.748,7.7613)"
>
<path vector-effect="none" fill-rule="nonzero" d="M18.16,12.96 C18.04,13.28 5.28,40.68 3.24,47.24 C3.12,47.6 3.76,47.84 3.48,48.28 C3.48,48.28 3.12,48.52 2.56,48.44 C2.04,48.32 2.12,47.64 2.12,47.64 C2.52,45.56 5.84,37.68 9.28,29.88 C8.4,31.44 7.6,32.8 7,33.76 C7.08,33.88 7.12,34.08 7.04,34.28 C6.88,34.64 6.68,34.6 6.52,34.52 C6.44,34.6 6.36,34.72 6.28,34.8 L6,35.2 C4.6,37 3.36,38.56 2.04,38.68 C2,38.72 1.92,38.72 1.84,38.72 C1.44,38.72 1.04,38.56 0.679999,38.28 C0.239999,37.88 0.0799994,37.24 0.239999,36.4 C0.559999,34.88 1.96,32.92 3.68,32.44 C4.32,32.28 5.24,32.24 6.16,32.92 C8.72,28.84 14.96,17.12 15.32,16.44 C16.32,14.24 17,12.76 17.12,12.48 C17.12,12.48 17.48,12.12 17.88,12.32 C18.32,12.52 18.16,12.96 18.16,12.96 L18.16,12.96 M5.4,34.08 C5.44,34.04 5.6,33.76 5.64,33.72 C5.32,33.44 4.44,33.2 3.92,33.32 C2.72,33.56 1.64,35.48 1.36,36.64 C1.28,37.04 1.32,37.32 1.4,37.36 C1.64,37.56 1.8,37.56 1.92,37.56 C2.76,37.44 4,35.88 5.08,34.48 L5.4,34.08 M21.732,34.2 C22.092,34.48 21.572,34.8 21.572,34.8 C21.252,35.16 16.772,40.28 13.412,39.96 C13.292,39.96 13.172,39.92 13.052,39.92 C12.652,39.84 12.132,39.56 11.812,38.8 C10.932,36.56 12.372,34.2 14.092,32.92 C15.172,32.12 16.132,31.92 16.692,32.4 C16.972,32.6 17.132,32.92 17.092,33.28 C17.052,34.48 14.852,36.08 14.172,36.52 C14.172,36.52 13.892,36.6 13.572,36.28 C13.252,35.92 13.532,35.56 13.532,35.56 C14.732,34.76 15.812,33.72 15.932,33.28 C15.692,33.28 14.972,33.56 14.132,34.4 C13.172,35.4 12.332,36.96 12.892,38.36 C13.452,39.44 14.932,38.88 16.132,38.4 C17.412,37.92 20.172,35.48 20.812,34.72 C20.812,34.72 21.212,33.72 21.732,34.2 L21.732,34.2 M31.984,36.04 C31.984,36.04 32.304,35.88 32.464,36.04 C32.624,36.24 32.464,36.48 32.464,36.48 C31.424,37.72 28.464,40.08 26.864,40.08 C26.344,40.08 26.024,39.88 25.904,39.68 C25.544,39.28 25.344,38.52 26.344,36 C23.344,39.48 22.384,39.16 22.024,39.08 C21.784,39 21.344,38.72 21.264,37.92 L21.264,37.88 C21.184,36.2 25.584,31.56 26.424,31.64 C26.424,31.64 27.024,31.8 26.984,32.08 C26.984,32.6 26.464,32.8 26.264,32.76 C25.504,32.4 22.344,36.52 22.424,37.84 L22.424,37.96 C22.904,37.84 24.304,36.76 26.504,34 C27.144,33.16 27.664,32.56 27.944,32.2 C28.304,31.8 28.624,31.4 29.064,31.76 C29.224,31.88 29.424,32.16 29.184,32.56 C27.664,35.44 26.584,38.32 26.784,38.92 C26.944,39.52 27.984,39.2 29.344,38.28 C30.344,37.6 31.424,36.68 31.984,36.04 L31.984,36.04 M44.156,16.48 C39.676,24.68 33.516,36.08 33.796,42.6 C33.836,42.88 33.916,43.16 34.076,43.24 C35.596,44 38.436,38.2 39.476,36.6 C39.476,36.6 39.836,35.64 40.356,36.08 C40.716,36.4 40.236,36.68 40.236,36.68 C39.716,37.28 36.036,44.2 34.316,44.08 C32.716,43.96 32.676,42.6 32.676,42.6 C32.516,34.64 40.156,21.16 45.116,12.4 C45.116,12.4 45.636,11.76 46.316,12.04 C46.836,12.28 46.636,12.96 46.636,12.96 C46.636,13 45.916,13.68 44.156,16.48 L44.156,16.48 M63.86,36.04 C63.86,36.04 64.18,35.88 64.34,36.04 C64.5,36.24 64.34,36.48 64.34,36.48 C63.3,37.72 60.34,40.08 58.74,40.08 C58.22,40.08 57.9,39.88 57.78,39.68 C57.42,39.28 57.22,38.52 58.22,36 C55.22,39.48 54.26,39.16 53.9,39.08 C53.66,39 53.22,38.72 53.14,37.92 L53.14,37.88 C53.06,36.2 57.46,31.56 58.3,31.64 C58.3,31.64 58.9,31.8 58.86,32.08 C58.86,32.6 58.34,32.8 58.14,32.76 C57.38,32.4 54.22,36.52 54.3,37.84 L54.3,37.96 C54.78,37.84 56.18,36.76 58.38,34 C59.02,33.16 59.54,32.56 59.82,32.2 C60.18,31.8 60.5,31.4 60.94,31.76 C61.1,31.88 61.3,32.16 61.06,32.56 C59.54,35.44 58.46,38.32 58.66,38.92 C58.82,39.52 59.86,39.2 61.22,38.28 C62.22,37.6 63.3,36.68 63.86,36.04 L63.86,36.04 M77.032,34.16 C77.392,34.48 76.912,34.76 76.912,34.76 C76.392,35.36 71.792,40 69.112,40 C68.792,40 68.512,40.12 68.232,40 C67.312,39.64 67.712,38.52 68.112,38.44 C68.472,38.36 68.912,38.16 69.352,37.88 C70.712,36.96 73.152,34.04 73.072,33.2 C73.072,33.12 73.072,32.84 72.232,32.76 C71.712,32.72 69.032,34.64 65.352,41.76 C63.112,46.08 61.112,50.88 60.272,52.92 L60.152,53.24 C60.152,53.24 59.712,53.92 59.272,53.8 C58.792,53.6 59.032,52.88 59.032,52.88 C59.552,50.8 69.632,27.72 70.072,26.76 C70.072,26.76 70.472,26 70.992,26.24 C71.472,26.52 71.112,27.2 71.112,27.2 C70.032,29.72 68.632,32.92 67.192,36.24 C69.232,33.28 71.472,31.56 72.352,31.6 C73.952,31.76 74.192,32.72 74.232,33.12 C74.352,34.68 71.352,38 69.272,39.2 C70.912,39.08 74.872,36.2 76.152,34.68 C76.152,34.68 76.512,33.68 77.032,34.16 L77.032,34.16 M87.324,36.04 C87.324,36.04 87.644,35.88 87.804,36.04 C87.964,36.24 87.804,36.48 87.804,36.48 C86.764,37.72 83.804,40.08 82.204,40.08 C81.684,40.08 81.364,39.88 81.244,39.68 C80.884,39.28 80.684,38.52 81.684,36 C78.684,39.48 77.724,39.16 77.364,39.08 C77.124,39 76.684,38.72 76.604,37.92 L76.604,37.88 C76.524,36.2 80.924,31.56 81.764,31.64 C81.764,31.64 82.364,31.8 82.324,32.08 C82.324,32.6 81.804,32.8 81.604,32.76 C80.844,32.4 77.684,36.52 77.764,37.84 L77.764,37.96 C78.244,37.84 79.644,36.76 81.844,34 C82.484,33.16 83.004,32.56 83.284,32.2 C83.644,31.8 83.964,31.4 84.404,31.76 C84.564,31.88 84.764,32.16 84.524,32.56 C83.004,35.44 81.924,38.32 82.124,38.92 C82.284,39.52 83.324,39.2 84.684,38.28 C85.684,37.6 86.764,36.68 87.324,36.04 L87.324,36.04 M98.656,34.36 C98.976,34.68 98.496,34.96 98.496,34.96 C98.136,35.44 95.576,38 93.176,39.4 C91.936,40.04 91.296,39.72 91.216,39.52 C90.896,38.96 91.256,38 92.056,35.92 C92.256,35.4 92.536,34.72 92.656,34.28 C92.336,34.2 91.776,34 91.496,33.84 C89.776,37.2 87.016,42.12 86.856,42.4 C86.856,42.4 86.936,43.28 86.376,42.96 C85.816,42.68 86.376,42 86.376,42 C87.416,40.16 89.416,36.04 90.776,33.32 C89.976,32.72 89.616,32 89.696,31.12 C89.776,30.32 90.296,29.6 91.016,29.32 C91.616,29.08 92.256,29.16 92.656,29.52 C92.896,29.76 93.256,30.24 93.016,31.16 C92.936,31.52 92.656,32.12 92.296,32.88 C92.576,33.04 93.736,33.52 93.816,33.68 C94.016,34.12 93.776,34.72 93.136,36.36 C92.896,36.96 92.456,38.36 92.296,38.96 C93.536,38.84 97.256,35.48 97.736,34.88 C97.736,34.88 98.096,33.92 98.656,34.36 L98.656,34.36 M91.896,30.84 C91.976,30.6 91.936,30.44 91.896,30.4 C91.856,30.36 91.776,30.36 91.696,30.36 C91.616,30.36 91.536,30.36 91.456,30.4 C91.336,30.44 90.896,30.64 90.816,31.24 C90.816,31.52 90.896,31.88 91.296,32.28 C91.616,31.64 91.816,31.12 91.896,30.84 L91.896,30.84 M136.468,17.44 C137.148,17.72 136.308,18.4 136.028,18.28 L135.988,18.28 C131.708,16.44 119.468,16.12 109.788,16.48 C105.308,24.68 99.148,36.08 99.428,42.6 C99.468,42.88 99.548,43.16 99.708,43.24 C101.228,44 104.068,38.2 105.108,36.6 C105.108,36.6 105.468,35.64 105.988,36.08 C106.348,36.4 105.868,36.68 105.868,36.68 C105.348,37.28 101.668,44.2 99.948,44.08 C98.348,43.96 98.308,42.6 98.308,42.6 C98.068,35.84 103.868,25.04 108.308,16.6 C101.668,16.88 96.388,17.52 96.268,17.56 C96.268,17.56 95.628,17.28 95.628,16.84 C95.628,16.24 96.388,16.04 96.388,16.04 C96.948,16.04 102.348,15.68 109.028,15.52 C110.068,13.52 110.628,12.64 110.748,12.4 C110.748,12.4 111.268,11.76 111.948,12.04 C112.468,12.28 112.268,12.96 112.268,12.96 C112.268,13 111.548,13.68 110.548,15.48 C120.108,15.28 132.028,15.52 136.468,17.44 L136.468,17.44 M122.32,36.48 C122.56,36.76 122.16,37.12 122.16,37.12 C120,39.2 114.76,45.2 113.52,44.48 C112.96,44.16 113.4,43.32 113.64,42.84 C113.88,42.32 114.24,41.68 114.64,40.96 C115.36,39.72 116.08,38.52 116.64,37.24 C117.96,34.6 117.96,34.08 117.8,34.04 C116.56,33.96 113.88,36.24 112.12,39.16 C112.12,39.16 111.68,39.44 111.32,39.2 C111,39 111.16,38.4 111.16,38.4 C111.16,38.36 111.24,38.28 111.36,38.16 C111.8,37.28 113.96,33.28 113.92,33.16 C112.8,32.84 110.32,35.96 109.4,37.48 C108.48,39 108.08,39.64 107.44,39.56 C107.32,39.52 106.96,39.4 106.84,38.88 C106.44,37.04 108.4,33.4 108.64,32.96 C108.64,32.96 109,32.16 109.6,32.56 C110.04,32.84 109.64,33.52 109.64,33.52 C109.04,34.56 108.28,36.32 108,37.56 C108.16,37.36 108.28,37.12 108.44,36.92 C109.8,34.64 112.44,31.24 114.48,32.2 L114.56,32.2 L114.6,32.24 C115.24,32.8 114.4,34.12 113.96,35.36 C114.6,34.76 117.88,32.08 118.84,33.6 C119.72,35.12 117.72,38.12 115.72,41.56 C115.56,41.88 115.36,42.24 115.16,42.56 C117.36,41.48 120.96,37.32 121.72,36.4 C121.72,36.4 122.08,36.2 122.32,36.48 M133.812,34.2 C134.172,34.48 133.652,34.8 133.652,34.8 C133.332,35.16 128.852,40.28 125.492,39.96 C125.372,39.96 125.252,39.92 125.132,39.92 C124.732,39.84 124.212,39.56 123.892,38.8 C123.012,36.56 124.452,34.2 126.172,32.92 C127.252,32.12 128.212,31.92 128.772,32.4 C129.052,32.6 129.212,32.92 129.172,33.28 C129.132,34.48 126.932,36.08 126.252,36.52 C126.252,36.52 125.972,36.6 125.652,36.28 C125.332,35.92 125.612,35.56 125.612,35.56 C126.812,34.76 127.892,33.72 128.012,33.28 C127.772,33.28 127.052,33.56 126.212,34.4 C125.252,35.4 124.412,36.96 124.972,38.36 C125.532,39.44 127.012,38.88 128.212,38.4 C129.492,37.92 132.252,35.48 132.892,34.72 C132.892,34.72 133.292,33.72 133.812,34.2 L133.812,34.2 M144.824,35.52 C145.064,35 145.624,35.16 145.544,35.36 C143.664,39.84 139.384,43.56 138.184,43.56 C138.064,43.56 137.984,43.52 137.944,43.52 C137.744,43.48 137.304,43.28 137.304,42.56 C137.264,41.52 138.064,40 138.944,38.28 C139.464,37.2 139.984,36.08 140.264,35.2 C140.584,34.32 140.504,33.84 140.464,33.72 C139.344,33.4 137.584,36.24 136.664,37.8 C135.704,39.36 135.304,40 134.664,39.88 C134.504,39.88 134.184,39.76 134.064,39.2 C133.664,37.32 135.864,33.64 136.064,33.24 C136.064,33.24 136.344,32.28 137.264,32.92 C137.704,33.2 136.904,33.76 136.904,33.76 C136.304,34.8 135.504,36.6 135.264,37.88 C135.384,37.64 135.544,37.4 135.664,37.2 C137.064,34.88 138.984,31.76 141.024,32.72 L141.104,32.76 L141.184,32.8 C142.304,33.76 141.224,36 139.984,38.6 C139.344,39.88 138.664,41.32 138.504,42.2 C139.704,42.36 142.984,39.32 144.824,35.52 L144.824,35.52 M183.596,17.44 C184.276,17.72 183.436,18.4 183.156,18.28 L183.116,18.28 C178.836,16.44 166.596,16.12 156.916,16.48 C152.436,24.68 146.276,36.08 146.556,42.6 C146.596,42.88 146.676,43.16 146.836,43.24 C148.356,44 151.196,38.2 152.236,36.6 C152.236,36.6 152.596,35.64 153.116,36.08 C153.476,36.4 152.996,36.68 152.996,36.68 C152.476,37.28 148.796,44.2 147.076,44.08 C145.476,43.96 145.436,42.6 145.436,42.6 C145.196,35.84 150.996,25.04 155.436,16.6 C148.796,16.88 143.516,17.52 143.396,17.56 C143.396,17.56 142.756,17.28 142.756,16.84 C142.756,16.24 143.516,16.04 143.516,16.04 C144.076,16.04 149.476,15.68 156.156,15.52 C157.196,13.52 157.756,12.64 157.876,12.4 C157.876,12.4 158.396,11.76 159.076,12.04 C159.596,12.28 159.396,12.96 159.396,12.96 C159.396,13 158.676,13.68 157.676,15.48 C167.236,15.28 179.156,15.52 183.596,17.44 L183.596,17.44"/>
</g>

<g fill="#000000" fill-opacity="1" stroke="#000000" stroke-opacity="1" stroke-width="1" stroke-linecap="square" stroke-linejoin="miter" stroke-miterlimit="2" transform="matrix(1.44006,0,0,1.44006,112.748,7.7613)"
>
</g>

<g fill="#000000" fill-opacity="1" stroke="#000000" stroke-opacity="1" stroke-width="1" stroke-linecap="square" stroke-linejoin="miter" stroke-miterlimit="2" transform="matrix(0.999853,0,0,0.999853,8.02144,11.9994)"
>
</g>

<g fill="#000000" fill-opacity="1" stroke="#000000" stroke-opacity="1" stroke-width="1" stroke-linecap="square" stroke-linejoin="miter" stroke-miterlimit="2" transform="matrix(0.999853,0,0,0.999853,8.02144,11.9994)"
>
</g>

<g fill="#000000" fill-opacity="1" stroke="#000000" stroke-opacity="1" stroke-width="1" stroke-linecap="square" stroke-linejoin="miter" stroke-miterlimit="2" transform="matrix(1,0,0,1,0,0)"
>
</g>

<g fill="#000000" fill-opacity="1" stroke="#000000" stroke-opacity="1" stroke-width="1" stroke-linecap="square" stroke-linejoin="miter" stroke-miterlimit="2" transform="matrix(1,0,0,1,0,0)"
>
</g>

<g fill="#000000" fill-opacity="1" stroke="#000000" stroke-opacity="1" stroke-width="1" stroke-linecap="square" stroke-linejoin="miter" stroke-miterlimit="2" transform="matrix(1,0,0,1,0,0)"
>
</g>

<g fill="#000000" fill-opacity="1" stroke="#000000" stroke-opacity="1" stroke-width="1" stroke-linecap="square" stroke-linejoin="miter" stroke-miterlimit="2" transform="matrix(1,0,0,1,0,0)"
>
</g>

<g fill="#000000" fill-opacity="1" stroke="#000000" stroke-opacity="1" stroke-width="1" stroke-linecap="square" stroke-linejoin="miter" stroke-miterlimit="2" transform="matrix(0.999853,0,0,0.999853,8.02144,11.9994)"
>
</g>

<g fill="#000000" fill-opacity="1" stroke="#000000" stroke-opacity="1" stroke-width="1" stroke-linecap="square" stroke-linejoin="miter" stroke-miterlimit="2" transform="matrix(25.4951,0,0,25.4951,-12.9847,-13.3999)"
>
</g>

<g fill="#000000" fill-opacity="1" stroke="#000000" stroke-opacity="1" stroke-width="1" stroke-linecap="square" stroke-linejoin="miter" stroke-miterlimit="2" transform="matrix(25.4951,0,0,25.4951,-12.9847,-13.3999)"
>
</g>

<g fill="#000000" fill-opacity="1" stroke="#000000" stroke-opacity="1" stroke-width="1" stroke-linecap="square" stroke-linejoin="miter" stroke-miterlimit="2" transform="matrix(0.999853,0,0,0.999853,8.02144,11.9994)"
>
</g>

<g fill="#000000" fill-opacity="1" stroke="#000000" stroke-opacity="1" stroke-width="1" stroke-linecap="square" stroke-linejoin="miter" stroke-miterlimit="2" transform="matrix(0.999853,0,0,0.999853,8.02144,11.9994)"
>
</g>

<g fill="#000000" fill-opacity="1" stroke="#000000" stroke-opacity="1" stroke-width="1" stroke-linecap="square" stroke-linejoin="miter" stroke-miterlimit="2" transform="matrix(0.999853,0,0,0.999853,8.02144,11.9994)"
>
</g>

<g fill="#000000" fill-opacity="1" stroke="#000000" stroke-opacity="1" stroke-width="1" stroke-linecap="square" stroke-linejoin="miter" stroke-miterlimit="2" transform="matrix(1,0,0,1,0,0)"
>
</g>

<g fill="#000000" fill-opacity="1" stroke="#000000" stroke-opacity="1" stroke-width="1" stroke-linecap="square" stroke-linejoin="miter" stroke-miterlimit="2" transform="matrix(1,0,0,1,0,0)"
>
</g>

<g fill="#000000" fill-opacity="1" stroke="#000000" stroke-opacity="1" stroke-width="1" stroke-linecap="square" stroke-linejoin="miter" stroke-miterlimit="2" transform="matrix(1,0,0,1,0,0)"
>
</g>

<g fill="#000000" fill-opacity="1" stroke="#000000" stroke-opacity="1" stroke-width="1" stroke-linecap="square" stroke-linejoin="miter" stroke-miterlimit="2" transform="matrix(1,0,0,1,0,0)"
>
</g>

<g fill="#000000" fill-opacity="1" stroke="#000000" stroke-opacity="1" stroke-width="1" stroke-linecap="square" stroke-linejoin="miter" stroke-miterlimit="2" transform="matrix(1,0,0,1,0,0)"
>
</g>

<g fill="#000000" fill-opacity="1" stroke="#000000" stroke-opacity="1" stroke-width="1" stroke-linecap="square" stroke-linejoin="miter" stroke-miterlimit="2" transform="matrix(1,0,0,1,0,0)"
>
</g>
</g>
</svg>
